<svg xmlns="http://www.w3.org/2000/svg" viewBox="0 0 300 150">
  <!-- Main Logo Text -->
  <g fill="#c278c1">
    <!-- 'U' Shape -->
    <path d="M50 30 C50 30, 50 70, 50 80 C50 90, 60 95, 70 95 C80 95, 90 90, 90 80 C90 80, 90 30, 90 30 L80 30 C80 30, 80 75, 80 80 C80 85, 75 85, 70 85 C65 85, 60 85, 60 80 C60 75, 60 30, 60 30 Z"/>
    
    <!-- 'n' Shape -->
    <path d="M110 95 C110 95, 110 58, 110 58 C110 50, 115 45, 125 45 C135 45, 140 50, 140 58 L140 95 L130 95 L130 60 C130 55, 128 55, 125 55 C122 55, 120 55, 120 60 L120 95 Z"/>
    
    <!-- 'f' Shape -->
    <path d="M170 30 C170 30, 150 30, 150 30 L150 95 L160 95 L160 65 L170 65 L170 55 L160 55 L160 40 L170 40 Z"/>
    
    <!-- ':' Shape -->
    <circle cx="185" cy="55" r="5"/>
    <circle cx="185" cy="75" r="5"/>
    
    <!-- 't' Shape -->
    <path d="M210 30 L210 95 L220 95 L220 65 L230 65 L230 55 L220 55 L220 30 Z"/>
  </g>
  
  <!-- "SECOND HAND" text - Only show if present in the logo -->
  <text x="150" y="120" text-anchor="middle" font-family="Poppins, sans-serif" font-size="16" fill="#c278c1" font-weight="500">SECOND HAND</text>
</svg>
